<svg id="icons" enable-background="new 0 0 64 64" height="512" viewBox="0 0 64 64" width="512" xmlns="http://www.w3.org/2000/svg"><g><g><g><path d="m56.309 17.659c-.129 0-.26-.024-.386-.077-.51-.214-.75-.799-.537-1.309l5.938-14.195c.215-.51.8-.751 1.309-.537.51.214.75.799.537 1.309l-5.938 14.195c-.162.384-.533.614-.923.614z" fill="#656d78"/></g></g><g><path d="m3.254 37.597h30.032v4.008h-30.032z" fill="#8cc152"/></g><g><g><g><path d="m4.255 42.539c-.256 0-.512-.098-.707-.293-.391-.391-.391-1.023 0-1.414l3-3c.391-.391 1.023-.391 1.414 0s.391 1.023 0 1.414l-3 3c-.195.195-.451.293-.707.293z" fill="#a0d468"/></g></g><g><g><path d="m10.255 42.539c-.256 0-.512-.098-.707-.293l-3-3c-.391-.391-.391-1.023 0-1.414s1.023-.391 1.414 0l3 3c.391.391.391 1.023 0 1.414-.195.195-.451.293-.707.293z" fill="#a0d468"/></g></g><g><g><path d="m10.255 42.539c-.256 0-.512-.098-.707-.293-.391-.391-.391-1.023 0-1.414l3-3c.391-.391 1.023-.391 1.414 0s.391 1.023 0 1.414l-3 3c-.195.195-.451.293-.707.293z" fill="#a0d468"/></g></g><g><g><path d="m16.255 42.539c-.256 0-.512-.098-.707-.293l-3-3c-.391-.391-.391-1.023 0-1.414s1.023-.391 1.414 0l3 3c.391.391.391 1.023 0 1.414-.195.195-.451.293-.707.293z" fill="#a0d468"/></g></g><g><g><path d="m16.255 42.539c-.256 0-.512-.098-.707-.293-.391-.391-.391-1.023 0-1.414l3-3c.391-.391 1.023-.391 1.414 0s.391 1.023 0 1.414l-3 3c-.195.195-.451.293-.707.293z" fill="#a0d468"/></g></g><g><g><path d="m22.255 42.539c-.256 0-.512-.098-.707-.293l-3-3c-.391-.391-.391-1.023 0-1.414s1.023-.391 1.414 0l3 3c.391.391.391 1.023 0 1.414-.195.195-.451.293-.707.293z" fill="#a0d468"/></g></g><g><g><path d="m22.255 42.539c-.256 0-.512-.098-.707-.293-.391-.391-.391-1.023 0-1.414l3-3c.391-.391 1.023-.391 1.414 0s.391 1.023 0 1.414l-3 3c-.195.195-.451.293-.707.293z" fill="#a0d468"/></g></g><g><g><path d="m28.255 42.539c-.256 0-.512-.098-.707-.293l-3-3c-.391-.391-.391-1.023 0-1.414s1.023-.391 1.414 0l3 3c.391.391.391 1.023 0 1.414-.195.195-.451.293-.707.293z" fill="#a0d468"/></g></g><g><g><path d="m28.255 42.539c-.256 0-.512-.098-.707-.293-.391-.391-.391-1.023 0-1.414l3-3c.391-.391 1.023-.391 1.414 0s.391 1.023 0 1.414l-3 3c-.195.195-.451.293-.707.293z" fill="#a0d468"/></g></g><g><g><path d="m34.255 42.539c-.256 0-.512-.098-.707-.293l-3-3c-.391-.391-.391-1.023 0-1.414s1.023-.391 1.414 0l3 3c.391.391.391 1.023 0 1.414-.195.195-.451.293-.707.293z" fill="#a0d468"/></g></g></g><g><path d="m32.616 28.606.479 9.99-20.84.01h-10v-2c0-4.43 3.58-8 8-8z" fill="#ffd2a6"/></g><g><g><g><path d="m6.29 36.526c-.553 0-1.005-.447-1.005-1s.442-1 .994-1h.011c.552 0 1 .447 1 1s-.448 1-1 1z" fill="#f7c292"/></g></g><g><g><path d="m10.29 32.528c-.553 0-1.005-.447-1.005-1s.442-1 .994-1h.011c.552 0 1 .447 1 1s-.448 1-1 1z" fill="#f7c292"/></g></g><g><g><path d="m14.29 36.526c-.553 0-1.005-.447-1.005-1s.442-1 .994-1h.011c.552 0 1 .447 1 1s-.448 1-1 1z" fill="#f7c292"/></g></g><g><g><path d="m18.29 32.528c-.553 0-1.005-.447-1.005-1s.442-1 .994-1h.011c.552 0 1 .447 1 1s-.448 1-1 1z" fill="#f7c292"/></g></g><g><g><path d="m22.29 36.526c-.553 0-1.005-.447-1.005-1s.442-1 .994-1h.011c.552 0 1 .447 1 1s-.448 1-1 1z" fill="#f7c292"/></g></g><g><g><path d="m26.29 32.528c-.553 0-1.005-.447-1.005-1s.442-1 .994-1h.011c.552 0 1 .447 1 1s-.448 1-1 1z" fill="#f7c292"/></g></g><g><g><path d="m30.29 36.526c-.553 0-1.005-.447-1.005-1s.442-1 .994-1h.011c.552 0 1 .447 1 1s-.448 1-1 1z" fill="#f7c292"/></g></g></g><g><path d="m33.676 49.605.23 5h-30.65-.002-.01c-1.38-.01-2.49-1.12-2.49-2.5s1.11-2.49 2.49-2.5h.01.002 17 13.41z" fill="#965353"/></g><g><path d="m33.526 46.605.15 3h-.01-13.41v-3z" fill="#da4453"/></g><g><path d="m3.256 46.605h17v3h-17z" fill="#ed5565"/></g><g><path d="m33.906 54.605.34 7h-26.99c-2.21 0-4-1.79-4-4v-3z" fill="#ffd2a6"/></g><g><path d="m33.286 41.605.24 5h-13.27-17-.002c-1.38 0-2.5-1.12-2.5-2.5s1.11-2.49 2.49-2.5h.01.002 6 6 6 6 6z" fill="#965353"/></g><g><path d="m58.246 18.529h-26.01c0-1.66 1.34-3 3-3h.01 19.99.01c1.65 0 3 1.34 3 3z" fill="#ccd1d9"/></g><g><path d="m55.236 15.529h-19.99c0-1.66 1.34-3 3-3h3 6.99 4c1.66 0 3 1.34 3 3z" fill="#e6e9ed"/></g><g><path d="m48.236 9.52v3.01h-6.99v-.01c0-1.66 1.34-3 3-3z" fill="#ccd1d9"/></g><g><path d="m58.966 18.839c-.188-.197-.45-.31-.724-.31h-26.003c-.273 0-.535.112-.724.31-.188.198-.288.465-.275.738l2.002 42.008c.025.533.465.952.999.952h21.999c.534 0 .974-.419.999-.952l2.002-42.008c.013-.273-.087-.54-.275-.738z" fill="#ec87c0"/></g><g><path d="m58.242 18.529h-26.003c-.273 0-.535.112-.724.31-.188.198-.288.465-.275.738l.188 3.952h27.624l.188-3.952c.013-.273-.087-.54-.275-.738-.188-.197-.449-.31-.723-.31z" fill="#e6e9ed"/></g></g></svg>