<svg id="Capa_1" enable-background="new 0 0 512 512" height="512" viewBox="0 0 512 512" width="512" xmlns="http://www.w3.org/2000/svg"><g><path d="m437.02 74.98c-48.353-48.351-112.64-74.98-181.02-74.98l-20.016 256 20.016 256c68.38 0 132.667-26.629 181.02-74.98 48.351-48.353 74.98-112.64 74.98-181.02s-26.629-132.667-74.98-181.02z" fill="#04303e"/><path d="m74.98 74.98c-48.351 48.353-74.98 112.64-74.98 181.02s26.629 132.667 74.98 181.02c48.353 48.351 112.64 74.98 181.02 74.98v-512c-68.38 0-132.667 26.629-181.02 74.98z" fill="#07485e"/><path d="m415.806 96.194c-42.686-42.686-99.439-66.194-159.806-66.194l-20.016 226 20.016 226c60.367 0 117.12-23.508 159.806-66.194s66.194-99.439 66.194-159.806-23.508-117.12-66.194-159.806z" fill="#e1ebf0"/><path d="m96.194 96.194c-42.686 42.686-66.194 99.439-66.194 159.806s23.508 117.12 66.194 159.806 99.439 66.194 159.806 66.194v-452c-60.367 0-117.12 23.508-159.806 66.194z" fill="#fff5f5"/><path d="m241 60.036h30v40.032h-30z" fill="#09607d"/><path d="m360.398 116.586h40.032v30h-40.032z" fill="#07485e" transform="matrix(.707 -.707 .707 .707 18.375 307.534)"/><path d="m411.932 241h40.032v30h-40.032z" fill="#07485e"/><path d="m365.414 360.398h30v40.032h-30z" fill="#07485e" transform="matrix(.707 -.707 .707 .707 -157.573 380.414)"/><g fill="#09607d"><path d="m241 411.932h30v40.032h-30z"/><path d="m111.57 365.414h40.032v30h-40.032z" transform="matrix(.707 -.707 .707 .707 -230.453 204.466)"/><path d="m60.036 241h40.032v30h-40.032z"/><path d="m116.586 111.57h30v40.032h-30z" transform="matrix(.707 -.707 .707 .707 -54.505 131.586)"/></g><path d="m361.892 271h-120.892v-120.892h30v90.892h90.892z" fill="#07485e"/></g></svg>