<?xml version="1.0" encoding="iso-8859-1"?>
<!-- Generator: Adobe Illustrator 19.0.0, SVG Export Plug-In . SVG Version: 6.00 Build 0)  -->
<svg version="1.1" id="Layer_1" xmlns="http://www.w3.org/2000/svg" xmlns:xlink="http://www.w3.org/1999/xlink" x="0px" y="0px"
	 viewBox="0 0 512 512" style="enable-background:new 0 0 512 512;" xml:space="preserve">
<path style="fill:#415E72;" d="M328.571,512H123.403c-21.864-0.064-39.568-17.768-39.632-39.632V39.632
	C83.835,17.768,101.547,0.064,123.403,0h205.168c21.864,0.064,39.568,17.768,39.632,39.632v432.736
	C368.139,494.224,350.435,511.928,328.571,512z"/>
<rect x="102.531" y="40.4" style="fill:#FFFFFF;" width="246.912" height="403.76"/>
<g>
	<path style="fill:#CFDCE5;" d="M263.019,24.424h-50.528c-2.28-0.008-4.12-1.848-4.128-4.128l0,0c0.008-2.28,1.848-4.12,4.128-4.128
		h50.528c2.28,0.008,4.12,1.848,4.128,4.128l0,0C267.147,22.576,265.299,24.416,263.019,24.424z"/>
	<circle style="fill:#CFDCE5;" cx="188.955" cy="20.296" r="4.128"/>
	<path style="fill:#CFDCE5;" d="M225.987,497.6c-10.784,0-19.52-8.736-19.52-19.52s8.736-19.52,19.52-19.52
		c10.784,0,19.52,8.736,19.52,19.52l0,0C245.499,488.856,236.763,497.584,225.987,497.6z M225.987,462.552
		c-8.568,0-15.52,6.952-15.52,15.52s6.952,15.52,15.52,15.52c8.568,0,15.52-6.952,15.52-15.52l0,0
		c0.008-8.584-6.936-15.544-15.52-15.552l0,0V462.552z"/>
</g>
<path style="fill:#25B6D2;" d="M286.891,79.064c-78.136-0.024-141.496,63.296-141.528,141.432
	c-0.016,44.944,21.328,87.224,57.496,113.904v71.096l57.448-45.96c76.76,14.592,150.816-35.816,165.408-112.576
	S389.899,96.144,313.139,81.552C304.491,79.904,295.699,79.072,286.891,79.064z"/>
<circle style="fill:#FFFFFF;" cx="286.891" cy="221.864" r="86.04"/>
<g>
	<path style="fill:#415E72;" d="M248.115,233.832c0,21.416,17.36,38.776,38.776,38.776s38.776-17.36,38.776-38.776H248.115z"/>
	<circle style="fill:#415E72;" cx="256.243" cy="197.384" r="14.976"/>
	<circle style="fill:#415E72;" cx="317.563" cy="197.384" r="14.976"/>
</g>
<g>
</g>
<g>
</g>
<g>
</g>
<g>
</g>
<g>
</g>
<g>
</g>
<g>
</g>
<g>
</g>
<g>
</g>
<g>
</g>
<g>
</g>
<g>
</g>
<g>
</g>
<g>
</g>
<g>
</g>
</svg>
